STARTFONT 2.1
FONT -sun-timmons-medium-r-normal--17-170-75-75-p-96-adobe-fontspecific
SIZE 17 75 75
FONTBOUNDINGBOX 20 21 -3 -4

STARTPROPERTIES 28
FOUNDRY "sun"
FAMILY_NAME "timmons"
WEIGHT_NAME "medium"
SLANT "r"
SETWIDTH_NAME "normal"
ADD_STYLE_NAME ""
PIXEL_SIZE 18
POINT_SIZE 170
RESOLUTION_X 75
RESOLUTION_Y 75
SPACING "p"
AVERAGE_WIDTH 96
CHARSET_REGISTRY "adobe"
CHARSET_ENCODING "fontspecific"
COPYRIGHT "© 1999 Sun Microsystems, Inc."
RAW_PIXELSIZE 1000
RAW_POINTSIZE 964
RAW_ASCENT 932
RAW_DESCENT 196
RAW_AVERAGE_WIDTH 5454
FACE_NAME "TimmonsNormalnsB5"
_XMBDFED_INFO "Edited with xmbdfed 2.4."
WEIGHT 10
X_HEIGHT -1
QUAD_WIDTH 9
DEFAULT_CHAR 4
FONT_DESCENT 4
FONT_ASCENT 17
ENDPROPERTIES

CHARS 214

STARTCHAR char32
ENCODING 32
SWIDTH 30 0
DWIDTH 6 0
BBX 0 0 0 0
BITMAP
ENDCHAR

STARTCHAR char33
ENCODING 33
SWIDTH 25 0
DWIDTH 5 0
BBX 2 13 2 0
BITMAP
40
C0
C0
C0
C0
C0
80
80
80
00
00
C0
C0
ENDCHAR

STARTCHAR char34
ENCODING 34
SWIDTH 35 0
DWIDTH 7 0
BBX 7 5 0 8
BITMAP
40
6C
7E
36
6C
ENDCHAR

STARTCHAR char35
ENCODING 35
SWIDTH 45 0
DWIDTH 9 0
BBX 9 13 0 0
BITMAP
1300
1200
1200
1200
FF80
3200
2200
2600
FF00
2400
2400
6400
6400
ENDCHAR

STARTCHAR char36
ENCODING 36
SWIDTH 45 0
DWIDTH 9 0
BBX 8 16 0 -2
BITMAP
18
3C
6B
49
49
68
78
1C
0E
0B
8B
8B
CB
FE
08
08
ENDCHAR

STARTCHAR char37
ENCODING 37
SWIDTH 14 0
DWIDTH 13 0
BBX 14 12 -1 0
BITMAP
7840
C440
CC80
CC80
CD38
CD4C
6ACC
32CC
04CC
04CC
08C8
0870
ENDCHAR

STARTCHAR char38
ENCODING 38
SWIDTH 14 0
DWIDTH 13 0
BBX 13 12 0 0
BITMAP
0F00
1880
1980
1B00
1C70
1C40
6440
4680
C780
C380
E7D8
78E0
ENDCHAR

STARTCHAR char39
ENCODING 39
SWIDTH 20 0
DWIDTH 4 0
BBX 3 5 0 8
BITMAP
20
40
C0
E0
60
ENDCHAR

STARTCHAR char40
ENCODING 40
SWIDTH 30 0
DWIDTH 6 0
BBX 5 16 0 -3
BITMAP
08
10
20
60
60
C0
C0
C0
C0
C0
C0
40
60
20
10
08
ENDCHAR

STARTCHAR char41
ENCODING 41
SWIDTH 30 0
DWIDTH 6 0
BBX 5 16 0 -3
BITMAP
80
40
20
30
10
18
18
18
18
18
18
10
10
20
40
80
ENDCHAR

STARTCHAR char42
ENCODING 42
SWIDTH 40 0
DWIDTH 8 0
BBX 7 8 0 5
BITMAP
18
18
DE
38
3C
DE
18
08
ENDCHAR

STARTCHAR char43
ENCODING 43
SWIDTH 9 0
DWIDTH 12 0
BBX 11 10 0 0
BITMAP
0600
0600
0600
0600
FFE0
0600
0600
0600
0600
0600
ENDCHAR

STARTCHAR char44
ENCODING 44
SWIDTH 20 0
DWIDTH 4 0
BBX 3 5 1 -3
BITMAP
C0
E0
60
60
40
ENDCHAR

STARTCHAR char45
ENCODING 45
SWIDTH 25 0
DWIDTH 5 0
BBX 4 1 1 4
BITMAP
F0
ENDCHAR

STARTCHAR char46
ENCODING 46
SWIDTH 20 0
DWIDTH 4 0
BBX 2 2 1 0
BITMAP
C0
C0
ENDCHAR

STARTCHAR char47
ENCODING 47
SWIDTH 35 0
DWIDTH 7 0
BBX 7 13 0 0
BITMAP
06
04
0C
08
08
18
10
30
20
20
60
40
C0
ENDCHAR

STARTCHAR char48
ENCODING 48
SWIDTH 40 0
DWIDTH 8 0
BBX 8 12 0 0
BITMAP
3C
66
C3
C3
C3
C3
C3
C3
C3
42
66
3C
ENDCHAR

STARTCHAR char49
ENCODING 49
SWIDTH 40 0
DWIDTH 8 0
BBX 5 13 2 0
BITMAP
20
E0
60
60
60
60
60
60
60
60
60
60
F8
ENDCHAR

STARTCHAR char50
ENCODING 50
SWIDTH 40 0
DWIDTH 8 0
BBX 8 12 0 0
BITMAP
38
7C
86
06
06
04
0C
08
10
30
62
FE
ENDCHAR

STARTCHAR char51
ENCODING 51
SWIDTH 40 0
DWIDTH 8 0
BBX 7 12 0 0
BITMAP
78
44
04
04
08
3C
06
06
06
06
C4
78
ENDCHAR

STARTCHAR char52
ENCODING 52
SWIDTH 40 0
DWIDTH 8 0
BBX 8 13 0 0
BITMAP
0C
0C
1C
2C
2C
2C
4C
4C
FF
04
04
04
04
ENDCHAR

STARTCHAR char53
ENCODING 53
SWIDTH 40 0
DWIDTH 8 0
BBX 7 12 0 0
BITMAP
1E
20
20
70
3C
0C
06
06
06
06
44
78
ENDCHAR

STARTCHAR char54
ENCODING 54
SWIDTH 40 0
DWIDTH 8 0
BBX 8 13 0 0
BITMAP
07
18
30
20
60
7C
E6
C3
C3
C3
C3
62
3C
ENDCHAR

STARTCHAR char55
ENCODING 55
SWIDTH 40 0
DWIDTH 8 0
BBX 8 12 0 0
BITMAP
7E
82
82
06
04
04
0C
08
08
18
10
10
ENDCHAR

STARTCHAR char56
ENCODING 56
SWIDTH 40 0
DWIDTH 8 0
BBX 7 12 0 0
BITMAP
7C
C6
E6
66
74
18
2C
46
C6
C6
C6
7C
ENDCHAR

STARTCHAR char57
ENCODING 57
SWIDTH 40 0
DWIDTH 8 0
BBX 8 12 0 0
BITMAP
7E
C6
C3
C3
C3
E3
7F
06
06
0C
18
30
ENDCHAR

STARTCHAR char58
ENCODING 58
SWIDTH 25 0
DWIDTH 5 0
BBX 2 9 2 0
BITMAP
C0
C0
00
00
00
00
00
C0
C0
ENDCHAR

STARTCHAR char59
ENCODING 59
SWIDTH 25 0
DWIDTH 5 0
BBX 4 12 1 -3
BITMAP
60
60
00
00
00
00
00
60
70
30
30
40
ENDCHAR

STARTCHAR char60
ENCODING 60
SWIDTH 50 0
DWIDTH 10 0
BBX 9 9 0 0
BITMAP
0080
0300
1C00
7000
C000
7000
1C00
0300
0080
ENDCHAR

STARTCHAR char61
ENCODING 61
SWIDTH 9 0
DWIDTH 12 0
BBX 11 4 0 3
BITMAP
FFE0
0000
0000
FFE0
ENDCHAR

STARTCHAR char62
ENCODING 62
SWIDTH 50 0
DWIDTH 10 0
BBX 9 9 0 0
BITMAP
C000
7000
1C00
0300
0080
0300
1C00
7000
C000
ENDCHAR

STARTCHAR char63
ENCODING 63
SWIDTH 40 0
DWIDTH 8 0
BBX 6 12 1 0
BITMAP
78
CC
CC
0C
08
10
10
10
10
00
30
30
ENDCHAR

STARTCHAR char64
ENCODING 64
SWIDTH 44 0
DWIDTH 19 0
BBX 14 13 2 0
BITMAP
07C0
1860
3018
67A8
6CCC
D84C
D84C
D8C8
D890
7FB0
3EC0
1830
0FC0
ENDCHAR

STARTCHAR char65
ENCODING 65
SWIDTH 14 0
DWIDTH 13 0
BBX 13 12 0 0
BITMAP
0200
0200
0700
0B00
0980
0980
11C0
1FC0
10C0
2060
2060
6078
ENDCHAR

STARTCHAR char66
ENCODING 66
SWIDTH 4 0
DWIDTH 11 0
BBX 10 12 0 0
BITMAP
FF80
30C0
30C0
30C0
3180
3E00
3180
30C0
30C0
30C0
31C0
FF80
ENDCHAR

STARTCHAR char67
ENCODING 67
SWIDTH 9 0
DWIDTH 12 0
BBX 11 12 1 0
BITMAP
1F40
20C0
4040
C040
C000
C000
C000
C000
C000
6020
30C0
1F00
ENDCHAR

STARTCHAR char68
ENCODING 68
SWIDTH 19 0
DWIDTH 14 0
BBX 13 12 0 0
BITMAP
FFC0
3070
3030
3018
3018
3018
3018
3018
3030
3070
30E0
FF80
ENDCHAR

STARTCHAR char69
ENCODING 69
SWIDTH 4 0
DWIDTH 11 0
BBX 11 12 0 0
BITMAP
7FC0
3040
3000
3080
3080
3F80
3080
3080
3000
3020
3040
FFC0
ENDCHAR

STARTCHAR char70
ENCODING 70
SWIDTH 4 0
DWIDTH 11 0
BBX 11 12 0 0
BITMAP
FFC0
3020
3000
3080
3080
3F80
3080
3080
3000
3000
3000
7C00
ENDCHAR

STARTCHAR char71
ENCODING 71
SWIDTH 19 0
DWIDTH 14 0
BBX 13 13 0 0
BITMAP
0010
1FF0
7030
6010
C000
C000
C0F8
C030
C030
6030
7030
3830
0FE0
ENDCHAR

STARTCHAR char72
ENCODING 72
SWIDTH 19 0
DWIDTH 14 0
BBX 13 12 0 0
BITMAP
7860
3060
3060
3060
3060
3FE0
3060
3060
3060
3060
3060
F8F8
ENDCHAR

STARTCHAR char73
ENCODING 73
SWIDTH 30 0
DWIDTH 6 0
BBX 6 12 0 0
BITMAP
FC
30
30
30
30
30
30
30
30
30
30
F8
ENDCHAR

STARTCHAR char74
ENCODING 74
SWIDTH 35 0
DWIDTH 7 0
BBX 8 13 0 0
BITMAP
21
3E
18
18
18
18
18
18
18
18
18
D0
F0
ENDCHAR

STARTCHAR char75
ENCODING 75
SWIDTH 14 0
DWIDTH 13 0
BBX 13 12 0 0
BITMAP
F8F8
3180
3100
3200
3400
3C00
3E00
3700
3380
31C0
30E0
F9F8
ENDCHAR

STARTCHAR char76
ENCODING 76
SWIDTH 4 0
DWIDTH 11 0
BBX 11 12 0 0
BITMAP
7C00
3000
3000
3000
3000
3000
3000
3000
3020
3020
3040
FFC0
ENDCHAR

STARTCHAR char77
ENCODING 77
SWIDTH 34 0
DWIDTH 17 0
BBX 16 12 0 0
BITMAP
700F
701C
781C
682C
6C2C
6C4C
664C
668C
638C
630C
610C
E11E
ENDCHAR

STARTCHAR char78
ENCODING 78
SWIDTH 19 0
DWIDTH 14 0
BBX 14 13 0 0
BITMAP
00DC
E020
7030
7830
6C30
6630
6330
61A0
61A0
60E0
6060
6020
F020
ENDCHAR

STARTCHAR char79
ENCODING 79
SWIDTH 14 0
DWIDTH 13 0
BBX 12 12 0 0
BITMAP
1FC0
7060
6060
C030
C030
C030
C030
C030
6020
6060
30C0
1F80
ENDCHAR

STARTCHAR char80
ENCODING 80
SWIDTH 50 0
DWIDTH 10 0
BBX 10 12 0 0
BITMAP
FF80
31C0
30C0
30C0
31C0
3F80
3000
3000
3000
3000
3000
F800
ENDCHAR

STARTCHAR char81
ENCODING 81
SWIDTH 14 0
DWIDTH 13 0
BBX 12 16 0 -4
BITMAP
3FC0
7060
6060
C030
C030
C030
C030
C030
6030
6060
30C0
0F80
0700
0380
00C0
0030
ENDCHAR

STARTCHAR char82
ENCODING 82
SWIDTH 9 0
DWIDTH 12 0
BBX 12 12 0 0
BITMAP
FF80
31C0
30C0
30C0
3180
3E00
3700
3300
3180
30C0
30C0
F870
ENDCHAR

STARTCHAR char83
ENCODING 83
SWIDTH 50 0
DWIDTH 10 0
BBX 8 13 1 0
BITMAP
02
7E
C2
C2
E0
70
3C
0E
07
83
83
C6
BC
ENDCHAR

STARTCHAR char84
ENCODING 84
SWIDTH 9 0
DWIDTH 12 0
BBX 11 12 0 0
BITMAP
FFE0
8C20
0C00
0C00
0C00
0C00
0C00
0C00
0C00
0C00
0C00
1F00
ENDCHAR

STARTCHAR char85
ENCODING 85
SWIDTH 19 0
DWIDTH 14 0
BBX 13 13 0 0
BITMAP
F878
7030
6030
6030
6030
6030
6030
6030
6030
6030
6020
3060
0F80
ENDCHAR

STARTCHAR char86
ENCODING 86
SWIDTH 14 0
DWIDTH 13 0
BBX 12 13 0 0
BITMAP
0800
F870
3040
3040
1040
1880
0880
0D00
0D00
0700
0600
0600
0200
ENDCHAR

STARTCHAR char87
ENCODING 87
SWIDTH 39 0
DWIDTH 18 0
BBX 15 12 0 0
BITMAP
E382
6182
6182
31C4
31C4
12E4
1A68
1A68
0C38
0C30
0410
0410
ENDCHAR

STARTCHAR char88
ENCODING 88
SWIDTH 14 0
DWIDTH 13 0
BBX 12 12 0 0
BITMAP
FC70
1840
1880
0D00
0E00
0600
0700
0B00
0980
1180
20C0
E1F0
ENDCHAR

STARTCHAR char89
ENCODING 89
SWIDTH 14 0
DWIDTH 13 0
BBX 12 12 0 0
BITMAP
7870
3040
1880
1880
0D00
0F00
0600
0600
0600
0600
0600
1F00
ENDCHAR

STARTCHAR char90
ENCODING 90
SWIDTH 4 0
DWIDTH 11 0
BBX 11 12 0 0
BITMAP
7FC0
41C0
4180
0300
0600
0C00
0C00
1800
3000
7040
6040
FFC0
ENDCHAR

STARTCHAR char91
ENCODING 91
SWIDTH 25 0
DWIDTH 5 0
BBX 3 15 1 -3
BITMAP
E0
C0
C0
C0
C0
C0
C0
C0
C0
C0
C0
C0
C0
C0
E0
ENDCHAR

STARTCHAR char92
ENCODING 92
SWIDTH 25 0
DWIDTH 5 0
BBX 5 13 0 0
BITMAP
80
80
40
40
40
60
20
20
30
10
10
18
08
ENDCHAR

STARTCHAR char93
ENCODING 93
SWIDTH 25 0
DWIDTH 5 0
BBX 4 15 0 -3
BITMAP
F0
30
30
30
30
30
30
30
30
30
30
30
30
30
F0
ENDCHAR

STARTCHAR char94
ENCODING 94
SWIDTH 0 0
DWIDTH 0 0
BBX 6 2 -3 14
BITMAP
30
78
ENDCHAR

STARTCHAR char95
ENCODING 95
SWIDTH 4 0
DWIDTH 11 0
BBX 10 1 0 -2
BITMAP
FFC0
ENDCHAR

STARTCHAR char96
ENCODING 96
SWIDTH 0 0
DWIDTH 0 0
BBX 3 2 -2 10
BITMAP
C0
40
ENDCHAR

STARTCHAR char97
ENCODING 97
SWIDTH 40 0
DWIDTH 8 0
BBX 8 9 0 0
BITMAP
3C
46
46
06
3E
46
C6
CE
76
ENDCHAR

STARTCHAR char98
ENCODING 98
SWIDTH 45 0
DWIDTH 9 0
BBX 9 12 0 0
BITMAP
E000
6000
6000
6E00
7700
6380
6180
6180
6180
6180
6300
3E00
ENDCHAR

STARTCHAR char99
ENCODING 99
SWIDTH 40 0
DWIDTH 8 0
BBX 7 9 0 0
BITMAP
3C
66
C2
C0
C0
C0
E2
66
38
ENDCHAR

STARTCHAR char100
ENCODING 100
SWIDTH 45 0
DWIDTH 9 0
BBX 8 12 0 0
BITMAP
04
03
03
3F
63
C3
C3
C3
C3
C3
63
3F
ENDCHAR

STARTCHAR char101
ENCODING 101
SWIDTH 40 0
DWIDTH 8 0
BBX 8 9 0 0
BITMAP
3C
46
C2
FE
C0
C0
C2
62
3C
ENDCHAR

STARTCHAR char102
ENCODING 102
SWIDTH 25 0
DWIDTH 5 0
BBX 8 13 0 0
BITMAP
0E
13
30
30
78
20
20
20
20
20
20
20
F0
ENDCHAR

STARTCHAR char103
ENCODING 103
SWIDTH 40 0
DWIDTH 8 0
BBX 9 12 0 -3
BITMAP
3C00
4780
C600
C600
E600
7C00
C000
7E00
8380
8180
C300
7C00
ENDCHAR

STARTCHAR char104
ENCODING 104
SWIDTH 50 0
DWIDTH 10 0
BBX 9 12 0 0
BITMAP
E000
6000
6000
6E00
7300
6300
6100
6100
6100
6100
6100
F780
ENDCHAR

STARTCHAR char105
ENCODING 105
SWIDTH 25 0
DWIDTH 5 0
BBX 4 12 0 0
BITMAP
60
60
00
20
E0
60
60
60
60
60
60
F0
ENDCHAR

STARTCHAR char106
ENCODING 106
SWIDTH 20 0
DWIDTH 4 0
BBX 5 15 -2 -3
BITMAP
18
18
00
08
38
18
18
18
18
18
18
18
18
50
60
ENDCHAR

STARTCHAR char107
ENCODING 107
SWIDTH 45 0
DWIDTH 9 0
BBX 9 12 0 0
BITMAP
E000
6000
6000
6F00
6400
6800
7000
7800
6800
6C00
6600
FF80
ENDCHAR

STARTCHAR char108
ENCODING 108
SWIDTH 25 0
DWIDTH 5 0
BBX 4 12 0 0
BITMAP
E0
60
60
60
60
60
60
60
60
60
60
F0
ENDCHAR

STARTCHAR char109
ENCODING 109
SWIDTH 24 0
DWIDTH 15 0
BBX 14 9 0 0
BITMAP
2E70
FE98
6318
6318
6318
6318
6318
6318
639C
ENDCHAR

STARTCHAR char110
ENCODING 110
SWIDTH 50 0
DWIDTH 10 0
BBX 9 9 0 0
BITMAP
2E00
FF00
6300
6300
6300
6300
6300
6300
F780
ENDCHAR

STARTCHAR char111
ENCODING 111
SWIDTH 45 0
DWIDTH 9 0
BBX 9 9 0 0
BITMAP
3E00
6300
C180
C180
C180
C180
C180
6300
3E00
ENDCHAR

STARTCHAR char112
ENCODING 112
SWIDTH 45 0
DWIDTH 9 0
BBX 8 12 0 -3
BITMAP
6C
76
63
63
63
63
63
62
7C
60
60
F0
ENDCHAR

STARTCHAR char113
ENCODING 113
SWIDTH 45 0
DWIDTH 9 0
BBX 9 12 0 -3
BITMAP
1D00
6300
C300
C300
C300
C300
C300
6700
3B00
0300
0300
0780
ENDCHAR

STARTCHAR char114
ENCODING 114
SWIDTH 30 0
DWIDTH 6 0
BBX 6 9 0 0
BITMAP
2C
7C
60
60
60
60
60
60
F0
ENDCHAR

STARTCHAR char115
ENCODING 115
SWIDTH 35 0
DWIDTH 7 0
BBX 7 9 0 0
BITMAP
7E
C6
C6
E0
7C
1E
86
C6
FC
ENDCHAR

STARTCHAR char116
ENCODING 116
SWIDTH 25 0
DWIDTH 5 0
BBX 6 11 0 0
BITMAP
20
60
F8
60
60
60
60
60
60
6C
30
ENDCHAR

STARTCHAR char117
ENCODING 117
SWIDTH 50 0
DWIDTH 10 0
BBX 8 9 0 0
BITMAP
E7
63
63
63
63
63
63
67
3B
ENDCHAR

STARTCHAR char118
ENCODING 118
SWIDTH 40 0
DWIDTH 8 0
BBX 8 9 0 0
BITMAP
F7
62
62
34
34
14
18
18
08
ENDCHAR

STARTCHAR char119
ENCODING 119
SWIDTH 9 0
DWIDTH 12 0
BBX 13 9 -1 0
BITMAP
F7B8
6310
6110
3390
33A0
1CA0
1CC0
0CC0
0840
ENDCHAR

STARTCHAR char120
ENCODING 120
SWIDTH 45 0
DWIDTH 9 0
BBX 8 9 0 0
BITMAP
F7
62
34
18
18
1C
24
46
C7
ENDCHAR

STARTCHAR char121
ENCODING 121
SWIDTH 40 0
DWIDTH 8 0
BBX 8 12 0 -3
BITMAP
F7
62
22
32
34
14
18
18
10
10
70
60
ENDCHAR

STARTCHAR char122
ENCODING 122
SWIDTH 40 0
DWIDTH 8 0
BBX 8 9 0 0
BITMAP
7F
46
4C
0C
18
30
61
41
FF
ENDCHAR

STARTCHAR char123
ENCODING 123
SWIDTH 30 0
DWIDTH 6 0
BBX 4 15 1 -3
BITMAP
70
60
60
60
60
60
40
80
40
40
60
60
60
60
30
ENDCHAR

STARTCHAR char124
ENCODING 124
SWIDTH 25 0
DWIDTH 5 0
BBX 2 13 1 0
BITMAP
C0
C0
C0
C0
C0
C0
C0
C0
C0
C0
C0
C0
C0
ENDCHAR

STARTCHAR char125
ENCODING 125
SWIDTH 30 0
DWIDTH 6 0
BBX 4 15 1 -3
BITMAP
C0
60
60
60
60
60
20
10
60
60
60
60
60
60
C0
ENDCHAR

STARTCHAR char126
ENCODING 126
SWIDTH 0 0
DWIDTH 0 0
BBX 7 2 -3 14
BITMAP
7E
B8
ENDCHAR

STARTCHAR char128
ENCODING 128
SWIDTH 45 0
DWIDTH 9 0
BBX 9 12 0 0
BITMAP
1F00
3180
6080
E000
C000
FE00
FE00
C000
E000
6000
6180
3E00
ENDCHAR

STARTCHAR char130
ENCODING 130
SWIDTH 20 0
DWIDTH 4 0
BBX 3 5 1 -3
BITMAP
C0
E0
60
60
40
ENDCHAR

STARTCHAR char131
ENCODING 131
SWIDTH 0 0
DWIDTH 0 0
BBX 6 2 -3 14
BITMAP
30
78
ENDCHAR

STARTCHAR char132
ENCODING 132
SWIDTH 35 0
DWIDTH 7 0
BBX 7 5 0 -3
BITMAP
4C
EE
66
66
CC
ENDCHAR

STARTCHAR char133
ENCODING 133
SWIDTH 44 0
DWIDTH 19 0
BBX 14 2 2 0
BITMAP
C30C
C30C
ENDCHAR

STARTCHAR char134
ENCODING 134
SWIDTH 40 0
DWIDTH 8 0
BBX 7 15 0 -3
BITMAP
18
18
7E
6E
08
18
18
18
18
18
18
18
18
18
10
ENDCHAR

STARTCHAR char135
ENCODING 135
SWIDTH 39 0
DWIDTH 18 0
BBX 0 0 0 0
BITMAP
ENDCHAR

STARTCHAR char136
ENCODING 136
SWIDTH 0 0
DWIDTH 0 0
BBX 6 2 -3 10
BITMAP
30
48
ENDCHAR

STARTCHAR char137
ENCODING 137
SWIDTH 39 0
DWIDTH 18 0
BBX 0 0 0 0
BITMAP
ENDCHAR

STARTCHAR char138
ENCODING 138
SWIDTH 39 0
DWIDTH 18 0
BBX 0 0 0 0
BITMAP
ENDCHAR

STARTCHAR char139
ENCODING 139
SWIDTH 30 0
DWIDTH 6 0
BBX 2 6 2 2
BITMAP
40
40
80
80
C0
40
ENDCHAR

STARTCHAR char140
ENCODING 140
SWIDTH 39 0
DWIDTH 18 0
BBX 17 12 0 0
BITMAP
3FFF00
60C100
60C000
C0C200
C0C200
C0FE00
C0C200
C0C200
E0C000
60C080
30C100
1FFF00
ENDCHAR

STARTCHAR char141
ENCODING 141
SWIDTH 39 0
DWIDTH 18 0
BBX 0 0 0 0
BITMAP
ENDCHAR

STARTCHAR char143
ENCODING 143
SWIDTH 39 0
DWIDTH 18 0
BBX 0 0 0 0
BITMAP
ENDCHAR

STARTCHAR char145
ENCODING 145
SWIDTH 20 0
DWIDTH 4 0
BBX 3 5 0 8
BITMAP
20
40
C0
E0
60
ENDCHAR

STARTCHAR char146
ENCODING 146
SWIDTH 20 0
DWIDTH 4 0
BBX 3 4 1 8
BITMAP
C0
E0
60
40
ENDCHAR

STARTCHAR char147
ENCODING 147
SWIDTH 35 0
DWIDTH 7 0
BBX 8 4 0 8
BITMAP
7F
D8
FC
6C
ENDCHAR

STARTCHAR char148
ENCODING 148
SWIDTH 35 0
DWIDTH 7 0
BBX 7 5 0 8
BITMAP
40
6C
7E
36
6C
ENDCHAR

STARTCHAR char149
ENCODING 149
SWIDTH 30 0
DWIDTH 6 0
BBX 5 5 0 4
BITMAP
70
F8
F8
F8
70
ENDCHAR

STARTCHAR char150
ENCODING 150
SWIDTH 40 0
DWIDTH 8 0
BBX 8 1 0 4
BITMAP
FF
ENDCHAR

STARTCHAR char151
ENCODING 151
SWIDTH 9 0
DWIDTH 12 0
BBX 11 1 0 5
BITMAP
FFE0
ENDCHAR

STARTCHAR char152
ENCODING 152
SWIDTH 0 0
DWIDTH 0 0
BBX 6 2 -3 10
BITMAP
74
98
ENDCHAR

STARTCHAR char153
ENCODING 153
SWIDTH 29 0
DWIDTH 16 0
BBX 14 7 0 5
BITMAP
FF0C
B50C
3194
3194
31EC
316C
735C
ENDCHAR

STARTCHAR char154
ENCODING 154
SWIDTH 39 0
DWIDTH 18 0
BBX 0 0 0 0
BITMAP
ENDCHAR

STARTCHAR char155
ENCODING 155
SWIDTH 30 0
DWIDTH 6 0
BBX 2 6 2 2
BITMAP
80
80
40
40
C0
80
ENDCHAR

STARTCHAR char156
ENCODING 156
SWIDTH 24 0
DWIDTH 15 0
BBX 14 9 0 0
BITMAP
3C70
6798
C30C
C3FC
C300
C300
C384
62E8
3C70
ENDCHAR

STARTCHAR char157
ENCODING 157
SWIDTH 39 0
DWIDTH 18 0
BBX 0 0 0 0
BITMAP
ENDCHAR

STARTCHAR char159
ENCODING 159
SWIDTH 14 0
DWIDTH 13 0
BBX 12 16 0 0
BITMAP
1900
1900
0000
0000
7870
3040
1880
1880
0D00
0700
0600
0600
0600
0600
0600
1F00
ENDCHAR

STARTCHAR char160
ENCODING 160
SWIDTH 40 0
DWIDTH 8 0
BBX 0 0 0 0
BITMAP
ENDCHAR

STARTCHAR char161
ENCODING 161
SWIDTH 25 0
DWIDTH 5 0
BBX 2 12 1 0
BITMAP
C0
C0
00
40
40
C0
C0
C0
C0
C0
C0
C0
ENDCHAR

STARTCHAR char162
ENCODING 162
SWIDTH 40 0
DWIDTH 8 0
BBX 7 13 0 -2
BITMAP
18
10
3C
7E
5A
D8
D8
D8
DA
7A
3C
18
18
ENDCHAR

STARTCHAR char163
ENCODING 163
SWIDTH 45 0
DWIDTH 9 0
BBX 10 12 -1 0
BITMAP
0F80
1980
1800
1800
1C00
3F00
0C00
0C00
0C00
0C40
F8C0
F780
ENDCHAR

STARTCHAR char164
ENCODING 164
SWIDTH 0 0
DWIDTH 0 0
BBX 3 2 -1 14
BITMAP
60
80
ENDCHAR

STARTCHAR char165
ENCODING 165
SWIDTH 0 0
DWIDTH 0 0
BBX 6 2 -3 14
BITMAP
C4
78
ENDCHAR

STARTCHAR char166
ENCODING 166
SWIDTH 39 0
DWIDTH 18 0
BBX 0 0 0 0
BITMAP
ENDCHAR

STARTCHAR char167
ENCODING 167
SWIDTH 30 0
DWIDTH 6 0
BBX 6 15 0 -3
BITMAP
7C
CC
E0
70
58
4C
84
84
C4
F4
38
0C
CC
CC
78
ENDCHAR

STARTCHAR char168
ENCODING 168
SWIDTH 0 0
DWIDTH 0 0
BBX 6 2 -3 10
BITMAP
CC
CC
ENDCHAR

STARTCHAR char169
ENCODING 169
SWIDTH 19 0
DWIDTH 14 0
BBX 13 12 0 0
BITMAP
0F00
10C0
2020
4790
C890
D818
D818
D818
4890
4720
3060
0F80
ENDCHAR

STARTCHAR char170
ENCODING 170
SWIDTH 0 0
DWIDTH 0 0
BBX 6 2 -3 14
BITMAP
CC
CC
ENDCHAR

STARTCHAR char171
ENCODING 171
SWIDTH 40 0
DWIDTH 8 0
BBX 8 8 0 1
BITMAP
11
22
66
4C
CC
44
22
22
ENDCHAR

STARTCHAR char172
ENCODING 172
SWIDTH 9 0
DWIDTH 12 0
BBX 12 5 0 0
BITMAP
FFF0
0030
0030
0030
0030
ENDCHAR

STARTCHAR char173
ENCODING 173
SWIDTH 39 0
DWIDTH 18 0
BBX 0 0 0 0
BITMAP
ENDCHAR

STARTCHAR char174
ENCODING 174
SWIDTH 19 0
DWIDTH 14 0
BBX 13 12 0 0
BITMAP
0F00
10C0
2020
4F10
CD90
CD98
CE18
CF18
4D90
5DF0
2060
1F80
ENDCHAR

STARTCHAR char175
ENCODING 175
SWIDTH 39 0
DWIDTH 18 0
BBX 0 0 0 0
BITMAP
ENDCHAR

STARTCHAR char176
ENCODING 176
SWIDTH 35 0
DWIDTH 7 0
BBX 6 6 0 6
BITMAP
30
48
CC
CC
48
30
ENDCHAR

STARTCHAR char177
ENCODING 177
SWIDTH 50 0
DWIDTH 10 0
BBX 9 11 0 0
BITMAP
1800
1800
1800
1800
FF80
1800
1800
1800
1800
0000
FF80
ENDCHAR

STARTCHAR char178
ENCODING 178
SWIDTH 39 0
DWIDTH 18 0
BBX 0 0 0 0
BITMAP
ENDCHAR

STARTCHAR char179
ENCODING 179
SWIDTH 39 0
DWIDTH 18 0
BBX 0 0 0 0
BITMAP
ENDCHAR

STARTCHAR char180
ENCODING 180
SWIDTH 0 0
DWIDTH 0 0
BBX 3 2 -1 10
BITMAP
60
40
ENDCHAR

STARTCHAR char181
ENCODING 181
SWIDTH 39 0
DWIDTH 18 0
BBX 0 0 0 0
BITMAP
ENDCHAR

STARTCHAR char182
ENCODING 182
SWIDTH 14 0
DWIDTH 13 0
BBX 8 15 2 -3
BITMAP
7F
F6
F6
F6
F6
76
36
36
36
36
36
36
36
36
36
ENDCHAR

STARTCHAR char183
ENCODING 183
SWIDTH 15 0
DWIDTH 3 0
BBX 2 2 1 4
BITMAP
C0
C0
ENDCHAR

STARTCHAR char184
ENCODING 184
SWIDTH 0 0
DWIDTH 0 0
BBX 4 4 -2 -4
BITMAP
20
70
30
60
ENDCHAR

STARTCHAR char186
ENCODING 186
SWIDTH 0 0
DWIDTH 0 0
BBX 7 2 -3 14
BITMAP
7E
B8
ENDCHAR

STARTCHAR char187
ENCODING 187
SWIDTH 40 0
DWIDTH 8 0
BBX 8 8 0 1
BITMAP
88
44
64
22
33
22
44
44
ENDCHAR

STARTCHAR char188
ENCODING 188
SWIDTH 39 0
DWIDTH 18 0
BBX 0 0 0 0
BITMAP
ENDCHAR

STARTCHAR char189
ENCODING 189
SWIDTH 39 0
DWIDTH 18 0
BBX 0 0 0 0
BITMAP
ENDCHAR

STARTCHAR char191
ENCODING 191
SWIDTH 35 0
DWIDTH 7 0
BBX 6 12 0 0
BITMAP
30
30
00
10
10
20
40
C0
C8
CC
C4
78
ENDCHAR

STARTCHAR char192
ENCODING 192
SWIDTH 14 0
DWIDTH 13 0
BBX 13 16 0 0
BITMAP
0C00
0200
0000
0200
0200
0600
0700
0B00
0980
0980
11C0
1FC0
10C0
2060
2060
6078
ENDCHAR

STARTCHAR char193
ENCODING 193
SWIDTH 14 0
DWIDTH 13 0
BBX 13 16 0 0
BITMAP
0300
0600
0000
0200
0200
0600
0700
0B00
0980
0980
11C0
1FC0
10C0
2060
2060
6078
ENDCHAR

STARTCHAR char194
ENCODING 194
SWIDTH 14 0
DWIDTH 13 0
BBX 13 16 0 0
BITMAP
0600
0F00
0000
0200
0200
0600
0700
0B00
0980
0980
11C0
1FC0
10C0
2060
2060
6078
ENDCHAR

STARTCHAR char195
ENCODING 195
SWIDTH 14 0
DWIDTH 13 0
BBX 13 16 0 0
BITMAP
0EC0
1700
0000
0200
0200
0600
0700
0B00
0980
0980
11C0
1FC0
10C0
2060
2060
6078
ENDCHAR

STARTCHAR char196
ENCODING 196
SWIDTH 14 0
DWIDTH 13 0
BBX 13 16 0 0
BITMAP
1980
1980
0000
0200
0200
0600
0600
0B00
0B00
1180
1180
1FC0
20C0
20E0
4060
E1F8
ENDCHAR

STARTCHAR char197
ENCODING 197
SWIDTH 14 0
DWIDTH 13 0
BBX 13 17 0 0
BITMAP
0780
0D80
0D80
0F80
0200
0200
0600
0700
0B00
0B80
0980
1180
1FC0
1040
2060
2060
E070
ENDCHAR

STARTCHAR char198
ENCODING 198
SWIDTH 34 0
DWIDTH 17 0
BBX 17 12 -1 0
BITMAP
01FF00
01C100
02C000
02C200
04C200
04FE00
0FC200
08C200
10C000
20C080
20C080
E3FF00
ENDCHAR

STARTCHAR char199
ENCODING 199
SWIDTH 9 0
DWIDTH 12 0
BBX 11 16 1 -4
BITMAP
1FC0
2040
4040
C040
C000
C000
C000
C000
C000
6020
3040
1F80
0800
0C00
0C00
1800
ENDCHAR

STARTCHAR char200
ENCODING 200
SWIDTH 4 0
DWIDTH 11 0
BBX 11 16 0 0
BITMAP
1800
0400
0000
0000
FFC0
3040
3000
3080
3080
3F80
3080
3080
3000
3020
3040
FFC0
ENDCHAR

STARTCHAR char201
ENCODING 201
SWIDTH 4 0
DWIDTH 11 0
BBX 11 16 0 0
BITMAP
0600
0C00
0000
0000
FFC0
3040
3000
3080
3080
3F80
3080
3080
3000
3020
3040
FFC0
ENDCHAR

STARTCHAR char202
ENCODING 202
SWIDTH 4 0
DWIDTH 11 0
BBX 11 16 0 0
BITMAP
0C00
1E00
0000
0000
FFC0
3040
3000
3080
3080
3F80
3080
3080
3000
3020
3040
FFC0
ENDCHAR

STARTCHAR char203
ENCODING 203
SWIDTH 4 0
DWIDTH 11 0
BBX 11 16 0 0
BITMAP
3300
1300
0000
0000
FFC0
3040
3000
3080
3080
3F80
3080
3080
3000
3020
3040
FFC0
ENDCHAR

STARTCHAR char204
ENCODING 204
SWIDTH 30 0
DWIDTH 6 0
BBX 6 16 0 0
BITMAP
E0
30
00
00
FC
30
30
30
30
30
30
30
30
30
30
F8
ENDCHAR

STARTCHAR char205
ENCODING 205
SWIDTH 30 0
DWIDTH 6 0
BBX 6 16 0 0
BITMAP
18
20
00
00
FC
30
30
30
30
30
30
30
30
30
30
F8
ENDCHAR

STARTCHAR char206
ENCODING 206
SWIDTH 30 0
DWIDTH 6 0
BBX 6 16 0 0
BITMAP
30
78
00
00
FC
30
30
30
30
30
30
30
30
30
30
F8
ENDCHAR

STARTCHAR char207
ENCODING 207
SWIDTH 30 0
DWIDTH 6 0
BBX 6 16 0 0
BITMAP
CC
CC
00
00
7C
30
30
30
30
30
30
30
30
30
30
78
ENDCHAR

STARTCHAR char208
ENCODING 208
SWIDTH 39 0
DWIDTH 18 0
BBX 0 0 0 0
BITMAP
ENDCHAR

STARTCHAR char209
ENCODING 209
SWIDTH 19 0
DWIDTH 14 0
BBX 14 16 0 0
BITMAP
0EC0
1700
0000
00DC
E020
7030
7830
6C30
6630
6330
61A0
61A0
60E0
6060
6020
F020
ENDCHAR

STARTCHAR char210
ENCODING 210
SWIDTH 14 0
DWIDTH 13 0
BBX 12 16 0 0
BITMAP
1C00
0600
0000
0000
1FC0
7060
6060
C030
C030
C030
C030
C030
6020
6060
30C0
1F80
ENDCHAR

STARTCHAR char211
ENCODING 211
SWIDTH 14 0
DWIDTH 13 0
BBX 12 16 0 0
BITMAP
0300
0400
0000
0000
1FC0
7060
6060
C030
C030
C030
C030
C030
6020
6060
30C0
1F80
ENDCHAR

STARTCHAR char212
ENCODING 212
SWIDTH 14 0
DWIDTH 13 0
BBX 12 16 0 0
BITMAP
0600
0F00
0000
0000
1FC0
7060
6060
C030
C030
C030
C030
C030
6020
6060
30C0
1F80
ENDCHAR

STARTCHAR char213
ENCODING 213
SWIDTH 14 0
DWIDTH 13 0
BBX 12 16 0 0
BITMAP
0EC0
1700
0000
0000
1FC0
6060
6060
C030
C030
C030
C030
C030
6020
6060
30C0
1F80
ENDCHAR

STARTCHAR char214
ENCODING 214
SWIDTH 14 0
DWIDTH 13 0
BBX 12 16 0 0
BITMAP
1980
1980
0000
0000
1FC0
60E0
6060
C070
C030
C030
C030
C030
6060
6060
30C0
1F80
ENDCHAR

STARTCHAR char215
ENCODING 215
SWIDTH 39 0
DWIDTH 18 0
BBX 0 0 0 0
BITMAP
ENDCHAR

STARTCHAR char216
ENCODING 216
SWIDTH 14 0
DWIDTH 13 0
BBX 12 12 0 0
BITMAP
1FE0
7060
60E0
C0B0
C130
C230
C430
E830
7030
6060
70C0
9F80
ENDCHAR

STARTCHAR char217
ENCODING 217
SWIDTH 19 0
DWIDTH 14 0
BBX 13 16 0 0
BITMAP
0C00
0200
0000
F878
7030
6010
6010
6010
6010
6010
6010
6010
6010
6020
3040
0F80
ENDCHAR

STARTCHAR char218
ENCODING 218
SWIDTH 19 0
DWIDTH 14 0
BBX 13 16 0 0
BITMAP
0300
0600
0000
F878
7030
6010
6010
6010
6010
6010
6010
6010
6010
6020
3040
0F80
ENDCHAR

STARTCHAR char219
ENCODING 219
SWIDTH 19 0
DWIDTH 14 0
BBX 13 16 0 0
BITMAP
0600
0F00
0000
F878
7030
6010
6010
6010
6010
6010
6010
6010
6010
6020
3040
0F80
ENDCHAR

STARTCHAR char220
ENCODING 220
SWIDTH 19 0
DWIDTH 14 0
BBX 13 16 0 0
BITMAP
0CC0
0CC0
0000
8C38
7030
6030
6030
6030
6030
6030
6030
6030
6030
7020
3860
1F80
ENDCHAR

STARTCHAR char221
ENCODING 221
SWIDTH 39 0
DWIDTH 18 0
BBX 0 0 0 0
BITMAP
ENDCHAR

STARTCHAR char222
ENCODING 222
SWIDTH 39 0
DWIDTH 18 0
BBX 0 0 0 0
BITMAP
ENDCHAR

STARTCHAR char223
ENCODING 223
SWIDTH 45 0
DWIDTH 9 0
BBX 9 12 0 0
BITMAP
3E00
6300
6300
6200
6C00
6600
6300
6300
6180
6100
7B00
FE00
ENDCHAR

STARTCHAR char224
ENCODING 224
SWIDTH 40 0
DWIDTH 8 0
BBX 8 12 0 0
BITMAP
20
10
00
3C
46
46
06
3E
46
C6
CE
76
ENDCHAR

STARTCHAR char225
ENCODING 225
SWIDTH 40 0
DWIDTH 8 0
BBX 8 13 0 0
BITMAP
0C
08
10
00
3C
46
46
06
3E
46
C6
CE
76
ENDCHAR

STARTCHAR char226
ENCODING 226
SWIDTH 40 0
DWIDTH 8 0
BBX 8 13 0 0
BITMAP
18
38
44
00
3C
46
46
06
3E
46
C6
CE
76
ENDCHAR

STARTCHAR char227
ENCODING 227
SWIDTH 40 0
DWIDTH 8 0
BBX 8 12 0 0
BITMAP
76
88
00
3C
46
46
06
3E
46
C6
CE
76
ENDCHAR

STARTCHAR char228
ENCODING 228
SWIDTH 40 0
DWIDTH 8 0
BBX 8 12 0 0
BITMAP
66
66
00
3C
46
46
06
3E
46
C6
CE
76
ENDCHAR

STARTCHAR char229
ENCODING 229
SWIDTH 40 0
DWIDTH 8 0
BBX 8 12 0 0
BITMAP
3C
24
3C
3C
66
C6
06
1E
66
C6
CE
76
ENDCHAR

STARTCHAR char230
ENCODING 230
SWIDTH 14 0
DWIDTH 13 0
BBX 12 9 0 0
BITMAP
39C0
C660
C430
0FF0
7600
C600
C610
CF20
F1C0
ENDCHAR

STARTCHAR char231
ENCODING 231
SWIDTH 40 0
DWIDTH 8 0
BBX 7 13 0 -4
BITMAP
1C
66
C2
C0
C0
C0
E2
64
3C
10
10
18
30
ENDCHAR

STARTCHAR char232
ENCODING 232
SWIDTH 40 0
DWIDTH 8 0
BBX 8 13 0 0
BITMAP
20
10
10
00
3C
46
C2
FE
C0
C0
C2
62
3C
ENDCHAR

STARTCHAR char233
ENCODING 233
SWIDTH 40 0
DWIDTH 8 0
BBX 8 13 0 0
BITMAP
0C
08
10
00
3C
46
C2
FE
C0
C0
C2
62
3C
ENDCHAR

STARTCHAR char234
ENCODING 234
SWIDTH 40 0
DWIDTH 8 0
BBX 8 13 0 0
BITMAP
18
38
64
00
3C
46
C2
FE
C0
C0
C2
62
3C
ENDCHAR

STARTCHAR char235
ENCODING 235
SWIDTH 40 0
DWIDTH 8 0
BBX 8 12 0 0
BITMAP
66
66
00
1C
66
42
7E
C0
40
42
72
3C
ENDCHAR

STARTCHAR char236
ENCODING 236
SWIDTH 25 0
DWIDTH 5 0
BBX 4 12 0 0
BITMAP
C0
40
20
00
60
60
60
60
60
60
60
F0
ENDCHAR

STARTCHAR char237
ENCODING 237
SWIDTH 25 0
DWIDTH 5 0
BBX 4 12 0 0
BITMAP
30
20
00
20
E0
60
60
60
60
60
60
F0
ENDCHAR

STARTCHAR char238
ENCODING 238
SWIDTH 25 0
DWIDTH 5 0
BBX 6 12 -1 0
BITMAP
30
48
00
10
70
30
30
30
30
30
30
78
ENDCHAR

STARTCHAR char239
ENCODING 239
SWIDTH 25 0
DWIDTH 5 0
BBX 6 12 -1 0
BITMAP
CC
CC
00
10
70
30
30
30
30
30
30
78
ENDCHAR

STARTCHAR char241
ENCODING 241
SWIDTH 50 0
DWIDTH 10 0
BBX 9 12 0 0
BITMAP
3A00
4400
0000
6E00
F300
6300
6300
6300
6300
6300
6300
F780
ENDCHAR

STARTCHAR char242
ENCODING 242
SWIDTH 45 0
DWIDTH 9 0
BBX 9 13 0 0
BITMAP
3000
1000
0800
0000
3E00
6300
C180
C180
C180
C180
C180
6300
3E00
ENDCHAR

STARTCHAR char243
ENCODING 243
SWIDTH 45 0
DWIDTH 9 0
BBX 9 13 0 0
BITMAP
0400
0C00
0800
0000
3E00
6300
C180
C180
C180
C180
C180
6300
3E00
ENDCHAR

STARTCHAR char244
ENCODING 244
SWIDTH 45 0
DWIDTH 9 0
BBX 9 13 0 0
BITMAP
1800
3C00
2200
0000
3E00
6300
C180
C180
C180
C180
C180
6300
3E00
ENDCHAR

STARTCHAR char245
ENCODING 245
SWIDTH 45 0
DWIDTH 9 0
BBX 9 12 0 0
BITMAP
3A00
4400
0000
3E00
6300
C180
C180
C180
C180
C180
6300
3E00
ENDCHAR

STARTCHAR char246
ENCODING 246
SWIDTH 45 0
DWIDTH 9 0
BBX 9 12 0 0
BITMAP
3600
3600
0000
1C00
6300
6300
4300
C180
4180
6300
6300
3E00
ENDCHAR

STARTCHAR char247
ENCODING 247
SWIDTH 50 0
DWIDTH 10 0
BBX 9 7 0 1
BITMAP
1800
1800
0000
FF80
0000
1800
1800
ENDCHAR

STARTCHAR char248
ENCODING 248
SWIDTH 45 0
DWIDTH 9 0
BBX 9 10 0 -1
BITMAP
3D00
6300
C780
C580
C980
C980
D180
6300
5E00
4000
ENDCHAR

STARTCHAR char249
ENCODING 249
SWIDTH 50 0
DWIDTH 10 0
BBX 8 12 0 0
BITMAP
10
08
00
E7
63
63
63
63
63
63
67
3B
ENDCHAR

STARTCHAR char250
ENCODING 250
SWIDTH 50 0
DWIDTH 10 0
BBX 8 13 0 0
BITMAP
04
0C
08
00
E7
63
63
63
63
63
63
67
3B
ENDCHAR

STARTCHAR char251
ENCODING 251
SWIDTH 50 0
DWIDTH 10 0
BBX 8 13 0 0
BITMAP
18
1C
22
00
E7
63
63
63
63
63
63
67
3B
ENDCHAR

STARTCHAR char252
ENCODING 252
SWIDTH 50 0
DWIDTH 10 0
BBX 8 12 0 0
BITMAP
26
26
00
E6
63
63
63
63
63
63
67
3B
ENDCHAR

STARTCHAR char255
ENCODING 255
SWIDTH 40 0
DWIDTH 8 0
BBX 8 15 0 -3
BITMAP
66
66
00
F7
62
62
22
32
34
18
18
10
10
E0
E0
ENDCHAR
ENDFONT
